<svg width="122" height="119" viewBox="0 0 122 119" fill="none" xmlns="http://www.w3.org/2000/svg">
<path d="M117.883 19.8737C115.103 16.8788 111.245 15.035 107.105 14.7233C106.784 10.7029 104.886 6.95579 101.802 4.25584C98.8027 1.67123 94.9288 0.249361 90.9191 0.261483C86.9095 0.273605 83.0447 1.71887 80.0621 4.32157C77.8143 6.29765 76.1856 8.8492 75.3631 11.6834C74.5406 14.5176 74.5574 17.5196 75.4118 20.3449C76.0185 22.2578 76.0863 24.2938 75.608 26.2408C75.1298 28.1878 74.1231 29.9748 72.6926 31.4158L32.078 70.8567C30.5949 72.2458 28.7556 73.2235 26.7514 73.6879C24.7473 74.1524 22.6516 74.0867 20.6824 73.4976C17.7734 72.6676 14.6823 72.6511 11.7639 73.4499C8.84564 74.2488 6.21841 75.8306 4.18384 78.0139C1.50381 80.9103 0.015582 84.6636 0.00310039 88.5577C-0.00938117 92.4517 1.45476 96.214 4.11617 99.1265C6.89579 102.122 10.7543 103.966 14.8941 104.277C15.0723 106.47 15.7224 108.603 16.8023 110.537C17.8822 112.471 19.3679 114.163 21.1635 115.505C22.959 116.846 25.0243 117.807 27.2261 118.324C29.4278 118.842 31.7169 118.905 33.9453 118.51C36.1738 118.115 38.2921 117.27 40.1633 116.03C42.0346 114.79 43.617 113.182 44.8085 111.311C46 109.44 46.774 107.347 47.0804 105.167C47.3868 102.987 47.2189 100.769 46.5874 98.6563C45.9807 96.7433 45.913 94.7074 46.3912 92.7603C46.8694 90.8133 47.8762 89.0263 49.3067 87.5853L89.9212 48.1445C91.4051 46.755 93.2453 45.7772 95.2502 45.3127C97.2552 44.8483 99.3517 44.9142 101.322 45.5036C104.23 46.3328 107.32 46.349 110.238 45.5501C113.155 44.7513 115.781 43.1698 117.815 40.9872C120.495 38.0906 121.983 34.3372 121.996 30.443C122.008 26.5488 120.544 22.7865 117.883 19.8737ZM115.351 38.8036C113.735 40.537 111.648 41.7931 109.331 42.4277C107.013 43.0623 104.558 43.0497 102.248 42.3915C99.7049 41.6412 97.0012 41.5668 94.4184 42.1758C91.8355 42.7848 89.468 44.0551 87.5623 45.8544L46.9487 85.2989C45.0952 87.1493 43.7867 89.4486 43.1596 91.9572C42.5324 94.4658 42.6096 97.0918 43.383 99.5616C44.0611 101.806 44.0741 104.19 43.4205 106.44C42.7669 108.691 41.4732 110.718 39.6877 112.287C37.8261 113.935 35.5066 115.016 33.0175 115.395C30.5284 115.773 27.9797 115.433 25.6883 114.415C23.397 113.398 21.4641 111.749 20.13 109.674C18.796 107.598 18.1197 105.187 18.1852 102.741C18.1905 102.525 18.1512 102.31 18.0697 102.109C17.9882 101.908 17.8662 101.725 17.7108 101.571C17.5555 101.416 17.3698 101.293 17.1649 101.209C16.9599 101.125 16.7397 101.082 16.5173 101.082H16.4763C14.6198 101.131 12.7745 100.787 11.0682 100.075C9.36185 99.3633 7.83531 98.2995 6.59429 96.9577C4.48169 94.6457 3.31943 91.6593 3.32928 88.5682C3.33912 85.4771 4.52038 82.4977 6.64767 80.1985C8.26334 78.4644 10.3497 77.2079 12.6673 76.5731C14.9849 75.9383 17.4398 75.951 19.7503 76.6097C22.2933 77.3611 24.9973 77.4362 27.5804 76.8271C30.1634 76.218 32.5309 74.947 34.436 73.1467L75.0506 33.7022C76.9039 31.8518 78.2123 29.5525 78.8393 27.0439C79.4663 24.5353 79.3889 21.9092 78.6153 19.4396C77.9376 17.1956 77.9249 14.8115 78.5784 12.5608C79.232 10.3101 80.5255 8.28387 82.3105 6.71441C84.1724 5.066 86.4921 3.98545 88.9811 3.60711C91.4702 3.22877 94.0189 3.56932 96.3103 4.58644C98.6017 5.60355 100.535 7.25235 101.869 9.32783C103.203 11.4033 103.88 13.8139 103.815 16.2599C103.809 16.4792 103.85 16.6974 103.933 16.9011C104.017 17.1048 104.143 17.2898 104.303 17.4447C104.463 17.5994 104.654 17.7212 104.863 17.8028C105.073 17.8843 105.297 17.9241 105.523 17.9196C108.042 17.856 110.524 18.5128 112.661 19.8086C114.798 21.1043 116.496 22.9817 117.544 25.2072C118.591 27.4327 118.941 29.9081 118.551 32.3255C118.162 34.7429 117.048 36.9957 115.351 38.8036Z" fill="#F4E6E6"/>
<path d="M108.304 26.0834C108.141 26.2259 108.009 26.3981 107.914 26.5902C107.82 26.7823 107.766 26.9905 107.754 27.203C107.743 27.4155 107.775 27.6281 107.848 27.8286C107.922 28.0291 108.035 28.2137 108.182 28.3717C108.678 28.9401 108.949 29.6618 108.947 30.4071C108.945 31.1525 108.669 31.8726 108.169 32.4381C107.771 32.8612 107.259 33.1681 106.691 33.3243C106.123 33.4804 105.522 33.4797 104.954 33.3222C104.531 33.2093 104.08 33.2628 103.697 33.4709C103.315 33.6791 103.032 34.0251 102.91 34.4343C102.788 34.8434 102.837 35.2827 103.046 35.657C103.256 36.0313 103.608 36.3105 104.028 36.4343C104.619 36.5981 105.231 36.6807 105.845 36.6796C106.748 36.6847 107.641 36.504 108.466 36.1495C109.291 35.795 110.03 35.2746 110.633 34.6227C111.686 33.4593 112.269 31.9647 112.274 30.4158C112.278 28.8669 111.705 27.3689 110.66 26.1991C110.363 25.8805 109.948 25.6894 109.506 25.6677C109.065 25.646 108.632 25.7955 108.304 26.0834Z" fill="#F4E6E6"/>
</svg>
