<svg width="32" height="21" viewBox="0 0 32 21" fill="none" xmlns="http://www.w3.org/2000/svg">
<path d="M16 16.1864C18.7959 16.1864 21.0625 14.4813 21.0625 12.3779C21.0625 10.2745 18.7959 8.5694 16 8.5694C13.2041 8.5694 10.9375 10.2745 10.9375 12.3779C10.9375 14.4813 13.2041 16.1864 16 16.1864Z" fill="#C7C7C7"/>
<path d="M23.3936 2.7391L23.07 1.52213C22.8954 0.865091 22.1221 0.388184 21.2314 0.388184H10.7686C9.87794 0.388184 9.10463 0.865091 8.93001 1.52213L8.60645 2.7391H23.3936Z" fill="#C7C7C7"/>
<path d="M29.1875 4.14966C26.9861 4.14966 3.84275 4.14966 2.8125 4.14966C1.26169 4.14966 0 5.09882 0 6.26549V18.4903C0 19.6569 1.26169 20.6061 2.8125 20.6061H29.1875C30.7383 20.6061 32 19.6569 32 18.4903V6.26549C32 5.09882 30.7383 4.14966 29.1875 4.14966ZM8 8.56939H5C4.48225 8.56939 4.0625 8.25361 4.0625 7.86411C4.0625 7.47461 4.48225 7.15884 5 7.15884H8C8.51775 7.15884 8.9375 7.47461 8.9375 7.86411C8.9375 8.25361 8.51775 8.56939 8 8.56939ZM16 17.5969C12.1746 17.5969 9.0625 15.2557 9.0625 12.3779C9.0625 9.50007 12.1746 7.15884 16 7.15884C19.8254 7.15884 22.9375 9.50007 22.9375 12.3779C22.9375 15.2557 19.8254 17.5969 16 17.5969Z" fill="#C7C7C7"/>
</svg>
