<svg width="250" height="257" viewBox="0 0 250 257" fill="none" xmlns="http://www.w3.org/2000/svg">
<g clip-path="url(#clip0)">
<path d="M216.083 42.4441C213.145 42.4441 210.755 44.9015 210.755 47.9214C210.755 50.9424 213.145 53.3993 216.083 53.3993C219.021 53.3993 221.412 50.9419 221.412 47.9214C221.412 44.901 219.021 42.4441 216.083 42.4441Z" fill="#505050"/>
<path d="M217.563 234.073C214.621 232.222 211.687 231.026 209.613 230.318V220.751C209.613 218.669 207.971 216.981 205.946 216.981C203.92 216.981 202.279 218.669 202.279 220.751V233.154C202.279 234.921 203.481 236.453 205.16 236.836C205.204 236.846 209.619 237.874 213.889 240.601C217.724 243.051 220.158 246.02 221.16 249.46H197.99C194.803 249.46 191.947 247.384 190.883 244.296L169.508 182.18C168.836 180.223 166.75 179.195 164.845 179.877C162.939 180.56 161.928 182.698 162.582 184.661C164.125 189.284 164.907 194.447 164.907 200.006C164.907 211.013 159.624 218.743 148.756 223.64C139.392 227.859 128.556 228.539 124.331 228.635C122.322 228.68 120.723 230.38 120.745 232.445C120.768 234.511 122.403 236.173 124.412 236.173H153.267C159.006 236.173 163.366 237.75 166.223 240.859C168.681 243.535 169.674 246.941 170.069 249.46H91.5876C85.5538 249.46 80.0922 246.991 75.3542 242.121C74.7313 241.48 73.9039 241.091 73.0243 241.026C49.1603 239.261 20.1993 216.827 13.5309 178.728C13.172 176.679 11.2665 175.318 9.27208 175.685C7.2786 176.054 5.95353 178.014 6.31193 180.063C9.5987 198.84 18.1667 215.518 31.0903 228.296C42.8356 239.908 57.0134 247.022 71.155 248.43C77.0387 254.042 84.0757 257 91.5871 257H173.976C175.907 257 177.507 255.461 177.635 253.481C177.663 253.057 178.232 243.02 171.618 235.753C167.709 231.457 162.25 229.087 155.369 228.692C163.54 224.078 168.845 217.502 171.061 209.3L183.968 246.81C186.066 252.905 191.701 256.999 197.99 256.999H225.352C227.378 256.999 229.019 255.312 229.019 253.23C229.02 245.411 225.058 238.787 217.563 234.073Z" fill="#505050"/>
<path d="M12.0284 164.236C10.9649 134.745 23.4264 117.754 34.0671 108.694C47.622 97.1518 62.3255 94.2174 62.942 94.0988C65.2455 93.6549 67.458 95.2172 67.8888 97.5726C68.3191 99.9315 66.8024 102.212 64.472 102.661C63.9185 102.774 50.7797 105.539 38.9865 115.813C23.5106 129.298 17.6044 149.019 21.4315 174.429C24.6929 196.082 36.2049 211.411 55.6473 219.991C57.7366 220.913 60.2293 222.359 62.2834 220.574C63.2999 219.69 63.7713 218.31 63.5146 216.968C56.4858 180.231 76.4421 153.516 97.9582 144.24C106.691 140.476 114.527 136.135 121.246 131.34C122.91 130.153 123.323 127.804 122.168 126.093C121.013 124.383 118.728 123.959 117.064 125.146C110.765 129.641 103.382 133.725 95.1218 137.287C63.3459 150.985 52.5263 184.001 55.3138 211.524C40.2969 203.808 31.3432 190.957 28.6798 173.274C25.2688 150.634 30.3325 133.236 43.7285 121.563C53.9814 112.631 65.7902 110.078 65.8611 110.063C72.13 108.853 76.2735 102.626 75.0975 96.1807C73.9226 89.7428 67.8653 85.4854 61.595 86.6857C60.8992 86.8199 44.3895 90.1133 29.3893 102.886C17.4773 113.029 3.5249 131.955 4.69889 164.515C4.77419 166.596 6.49434 168.205 8.49956 168.143C10.5234 168.066 12.1032 166.317 12.0284 164.236Z" fill="#505050"/>
<path d="M245.339 57.233C245.318 56.9731 245.318 56.7098 245.283 56.4514C245.137 55.2863 244.67 53.9764 243.81 52.3166C243.787 52.2724 243.76 52.2312 243.735 52.1884C241.833 48.5417 229.528 32.1132 228.797 31.0405C225.731 26.5378 215.677 24.4538 209.159 23.5546V3.76834C209.159 1.45566 207.057 -0.350861 204.842 0.0577915C203.857 0.240253 181.191 4.67964 173.701 26.8917C169.062 29.14 156.803 36.728 152.402 55.6537C151.706 58.6419 151.138 61.9237 150.536 65.3985C147.933 80.4327 144.692 99.1433 127.955 115.958C126.507 117.414 126.48 119.801 127.896 121.289C129.31 122.777 131.633 122.805 133.081 121.35C139.786 114.614 144.523 107.564 147.972 100.584C169.582 115.917 191.268 118.951 205.012 118.951C206.041 118.951 207.024 118.933 207.96 118.903C208.818 120.581 209.637 122.042 210.279 123.185L210.701 123.94C211.382 125.164 227.096 154.277 203.104 184.525C202.57 185.197 202.279 186.039 202.279 186.907V205.672C202.279 207.754 203.92 209.441 205.946 209.441C207.971 209.441 209.613 207.754 209.613 205.672V188.231C219.585 175.228 224.313 160.909 223.668 145.653C223.077 131.662 218.067 121.995 217.069 120.199L216.63 119.415C214.504 115.629 209.175 106.136 210.371 99.8762C210.378 99.849 210.384 99.8219 210.39 99.7947C210.507 99.2092 210.679 98.6502 210.921 98.13C212.107 95.5775 215.077 93.9012 219.746 93.1482C230.423 91.4267 238.207 85.1245 242.255 74.9222C243.882 70.8231 245.63 60.8672 245.339 57.233ZM151.035 93.5921C152.286 90.3445 153.305 87.1406 154.151 84.0227C161.309 90.6129 176.665 101.111 202.902 102.618C203.021 105.575 203.739 108.582 204.715 111.41C191.74 111.369 171.295 108.394 151.035 93.5921ZM218.609 85.7C211.408 86.8616 206.595 89.9494 204.303 94.8794C204.264 94.9633 204.233 95.0492 204.195 95.1337C186.392 94.2551 174.213 88.8838 167.025 84.4112C161.264 80.8258 157.739 77.259 156.153 75.457C156.773 72.3939 157.281 69.4645 157.757 66.72C158.339 63.3578 158.889 60.181 159.535 57.4074C163.921 38.5481 177.318 33.4542 177.867 33.2532C178.988 32.8581 179.854 31.9307 180.192 30.7631C184.209 16.899 195.536 10.9964 201.824 8.72847V26.9103C201.824 28.847 203.253 30.469 205.128 30.6615C213.119 31.4818 221.54 33.7277 222.789 35.3643C223.631 36.6013 225.02 38.4274 226.78 40.7396C229.004 43.662 233.29 49.2967 235.887 53.3511C235.166 54.483 234.753 55.8231 234.753 57.233C234.753 59.6447 235.897 61.7629 237.669 63.0461C236.582 72.2491 232.368 83.4818 218.609 85.7Z" fill="#505050"/>
</g>
<defs>
<clipPath id="clip0">
<rect width="250" height="257" fill="white"/>
</clipPath>
</defs>
</svg>
