<svg width="32" height="28" viewBox="0 0 32 28" fill="none" xmlns="http://www.w3.org/2000/svg">
<path d="M26.8599 1.88672H5.10883C2.83466 1.88672 0.984375 3.50539 0.984375 5.49561V17.1429C0.984375 19.1287 2.8266 20.7448 5.09418 20.7518V26.0372L13.775 20.7518H26.8599C29.1341 20.7518 30.9844 19.1328 30.9844 17.1429V5.49561C30.9844 3.50539 29.1341 1.88672 26.8599 1.88672ZM29.2266 17.1429C29.2266 18.2846 28.1649 19.2137 26.8599 19.2137H13.2235L6.85199 23.0932V19.2137H5.10883C3.80383 19.2137 2.74219 18.2846 2.74219 17.1429V5.49561C2.74219 4.35358 3.80383 3.4248 5.10883 3.4248H26.8599C28.1649 3.4248 29.2266 4.35358 29.2266 5.49561V17.1429Z" fill="#544747"/>
<path d="M9.01367 7.32153H22.955V8.85962H9.01367V7.32153Z" fill="#544747"/>
<path d="M9.01367 10.6028H22.955V12.1409H9.01367V10.6028Z" fill="#544747"/>
<path d="M9.01367 13.884H22.955V15.4221H9.01367V13.884Z" fill="#544747"/>
</svg>
