<svg width="25" height="25" viewBox="0 0 25 25" fill="none" xmlns="http://www.w3.org/2000/svg">
<path d="M20.5354 12.5001C20.0423 12.5001 19.6426 12.8998 19.6426 13.3929V22.3214C19.6426 22.8145 19.2428 23.2142 18.7497 23.2142H2.67854C2.18541 23.2142 1.78567 22.8145 1.78567 22.3214V4.46447C1.78567 3.97135 2.18541 3.57161 2.67854 3.57161H13.3927C13.8858 3.57161 14.2855 3.17187 14.2855 2.67874C14.2855 2.18562 13.8858 1.78593 13.3927 1.78593H2.67854C1.19922 1.78593 0 2.98515 0 4.46447V22.3214C0 23.8007 1.19922 24.9999 2.67854 24.9999H18.7498C20.2291 24.9999 21.4283 23.8007 21.4283 22.3214V13.3929C21.4283 12.8998 21.0285 12.5001 20.5354 12.5001Z" fill="white"/>
<path d="M23.9991 1.00142C23.358 0.360245 22.4885 0.00010786 21.5818 0.00021249C20.6746 -0.00240327 19.8042 0.358362 19.1649 1.002L7.40427 12.7616C7.3067 12.8599 7.2331 12.9794 7.1891 13.1107L5.40343 18.4678C5.24758 18.9356 5.50052 19.4412 5.96838 19.597C6.05914 19.6272 6.1542 19.6427 6.24983 19.6428C6.34567 19.6426 6.44094 19.6272 6.53197 19.5973L11.889 17.8116C12.0206 17.7676 12.1402 17.6937 12.2381 17.5955L23.9987 5.83497C25.3335 4.50031 25.3337 2.33624 23.9991 1.00142Z" fill="white"/>
</svg>
