<svg width="94" height="129" viewBox="0 0 94 129" fill="none" xmlns="http://www.w3.org/2000/svg">
<path d="M88.1322 17.8047C90.3026 12.8245 92.1577 7.72167 93.6875 2.52446C93.761 2.24375 93.7671 1.95054 93.7054 1.6672C93.6436 1.38387 93.5155 1.11791 93.331 0.889623C93.1465 0.661339 92.9104 0.476769 92.6407 0.350005C92.3711 0.223242 92.0749 0.157637 91.775 0.158199H2.216C1.91604 0.157637 1.61992 0.223242 1.35024 0.350005C1.08056 0.476769 0.844454 0.661339 0.659946 0.889623C0.475438 1.11791 0.347407 1.38387 0.285632 1.6672C0.223856 1.95054 0.229969 2.24375 0.303502 2.52446C1.83621 7.72186 3.69437 12.8247 5.86775 17.8047C0.0290007 32.2303 0.130251 72.9703 0.223626 112.404C0.236001 117.305 0.247251 122.169 0.247251 126.937C0.247549 127.441 0.455065 127.924 0.824213 128.281C1.19336 128.637 1.69395 128.837 2.216 128.837H91.784C92.306 128.837 92.8066 128.637 93.1758 128.281C93.5449 127.924 93.7524 127.441 93.7527 126.937C93.7527 122.169 93.764 117.305 93.7764 112.404C93.872 72.9801 93.971 32.2346 88.1322 17.8047ZM89.8389 112.39C89.8276 116.643 89.8186 120.87 89.8164 125.031H4.18363C4.18363 120.87 4.17237 116.643 4.16112 112.39C4.07225 75.5255 3.97325 33.8863 9.33612 19.6953H14.7451C15.2673 19.6953 15.768 19.4951 16.1372 19.1387C16.5065 18.7823 16.7139 18.2989 16.7139 17.7949C16.7139 17.2909 16.5065 16.8075 16.1372 16.4511C15.768 16.0947 15.2673 15.8945 14.7451 15.8945H9.3125C8.354 13.6282 6.21425 8.4287 4.8125 3.94921H89.1875C87.7812 8.4287 85.6415 13.6282 84.6875 15.8945H79.2537C78.7316 15.8945 78.2308 16.0947 77.8616 16.4511C77.4924 16.8075 77.285 17.2909 77.285 17.7949C77.285 18.2989 77.4924 18.7823 77.8616 19.1387C78.2308 19.4951 78.7316 19.6953 79.2537 19.6953H84.6627C90.0267 33.8961 89.9277 75.5353 89.8389 112.4V112.39Z" fill="#F4E6E6"/>
<path d="M83.1125 103.387L83.0934 112.384C83.0926 112.634 83.1429 112.881 83.2412 113.112C83.3396 113.343 83.4841 113.553 83.6665 113.73C83.8489 113.907 84.0657 114.047 84.3044 114.143C84.5431 114.239 84.799 114.289 85.0576 114.289C85.579 114.289 86.0791 114.09 86.4481 113.734C86.8172 113.379 87.0252 112.896 87.0264 112.393L87.0455 103.392C87.0458 102.888 86.8388 102.404 86.4701 102.048C86.1014 101.691 85.601 101.49 85.079 101.489C84.5576 101.49 84.0578 101.69 83.6891 102.046C83.3205 102.402 83.1131 102.884 83.1125 103.387Z" fill="#F4E6E6"/>
<path d="M27.65 19.7051H40.5504C41.0725 19.7051 41.5733 19.5049 41.9425 19.1485C42.3117 18.7921 42.5191 18.3087 42.5191 17.8047C42.5191 17.3007 42.3117 16.8173 41.9425 16.4609C41.5733 16.1045 41.0725 15.9043 40.5504 15.9043H27.65C27.1278 15.9043 26.6271 16.1045 26.2579 16.4609C25.8887 16.8173 25.6812 17.3007 25.6812 17.8047C25.6812 18.3087 25.8887 18.7921 26.2579 19.1485C26.6271 19.5049 27.1278 19.7051 27.65 19.7051Z" fill="#F4E6E6"/>
<path d="M53.4496 19.7051H66.35C66.8722 19.7051 67.3729 19.5049 67.7421 19.1485C68.1113 18.7921 68.3188 18.3087 68.3188 17.8047C68.3188 17.3007 68.1113 16.8173 67.7421 16.4609C67.3729 16.1045 66.8722 15.9043 66.35 15.9043H53.4496C52.9275 15.9043 52.4267 16.1045 52.0575 16.4609C51.6883 16.8173 51.4809 17.3007 51.4809 17.8047C51.4809 18.3087 51.6883 18.7921 52.0575 19.1485C52.4267 19.5049 52.9275 19.7051 53.4496 19.7051Z" fill="#F4E6E6"/>
<path d="M60.95 74.4461C61.3437 74.115 61.585 73.6466 61.6209 73.1437C61.6567 72.6409 61.4842 72.145 61.1412 71.7649C60.0123 70.6966 58.4944 70.0981 56.9135 70.0981C55.3325 70.0981 53.8146 70.6966 52.6857 71.7649C52.5064 71.9514 52.3677 72.1708 52.2779 72.4101C52.1881 72.6493 52.1489 72.9035 52.1628 73.1576C52.1767 73.4117 52.2433 73.6606 52.3586 73.8894C52.474 74.1182 52.6358 74.3223 52.8345 74.4896C53.0331 74.6569 53.2645 74.784 53.515 74.8633C53.7655 74.9426 54.0299 74.9726 54.2926 74.9514C54.5553 74.9303 54.8109 74.8584 55.0443 74.7401C55.2777 74.6217 55.4841 74.4594 55.6512 74.2626C56.0259 74.0252 56.4642 73.8988 56.9124 73.8988C57.3605 73.8988 57.7989 74.0252 58.1735 74.2626C58.5164 74.6423 59.0015 74.875 59.5222 74.9096C60.0428 74.9442 60.5564 74.7779 60.95 74.4472V74.4461Z" fill="#F4E6E6"/>
<path d="M41.1275 74.4439C41.3224 74.2799 41.4819 74.0805 41.5969 73.8569C41.7119 73.6334 41.7801 73.3902 41.7977 73.1411C41.8152 72.8921 41.7818 72.6422 41.6992 72.4057C41.6166 72.1692 41.4866 71.9507 41.3165 71.7628C40.1876 70.6944 38.6697 70.096 37.0887 70.096C35.5078 70.096 33.9899 70.6944 32.861 71.7628C32.5233 72.1433 32.355 72.6373 32.3928 73.1371C32.4305 73.6368 32.6712 74.102 33.0625 74.4313C33.4538 74.7606 33.964 74.9274 34.4821 74.8954C35.0001 74.8634 35.4841 74.6352 35.8287 74.2604C36.2034 74.023 36.6417 73.8966 37.0899 73.8966C37.538 73.8966 37.9764 74.023 38.351 74.2604C38.5208 74.4484 38.7273 74.6024 38.9588 74.7134C39.1902 74.8244 39.442 74.8903 39.6999 74.9073C39.9577 74.9244 40.2165 74.8922 40.4614 74.8127C40.7064 74.7332 40.9327 74.6079 41.1275 74.4439Z" fill="#F4E6E6"/>
<path d="M73.8256 84.9819C72.8719 84.6206 71.8896 84.3341 70.8882 84.1251C71.5379 81.8808 71.8694 79.5618 71.8737 77.2315C71.9007 73.5708 70.9754 69.962 69.1827 66.736C69.9803 61.7531 69.6471 56.6626 68.2062 51.8163C68.129 51.5657 67.9979 51.3337 67.8215 51.1354C67.6451 50.9371 67.4273 50.7768 67.1825 50.6652C66.9417 50.5475 66.6776 50.4809 66.4079 50.4696C66.1382 50.4584 65.8692 50.5028 65.6187 50.6C62.1348 52.0686 58.8992 54.0339 56.0202 56.4304C50.155 54.6075 43.845 54.6075 37.9797 56.4304C35.1008 54.0339 31.8652 52.0686 28.3813 50.6C28.1308 50.5028 27.8618 50.4584 27.5921 50.4696C27.3224 50.4809 27.0583 50.5475 26.8175 50.6652C26.5727 50.7768 26.3549 50.9371 26.1785 51.1354C26.0021 51.3337 25.871 51.5657 25.7938 51.8163C24.3529 56.6626 24.0197 61.7531 24.8173 66.736C23.0246 69.962 22.0993 73.5708 22.1262 77.2315C22.1307 79.5622 22.4622 81.8815 23.1117 84.1262C22.1105 84.3352 21.1283 84.6214 20.1744 84.9819C19.9351 85.0778 19.7178 85.2182 19.5347 85.3952C19.3517 85.5722 19.2066 85.7822 19.1077 86.0134C19.0087 86.2445 18.9579 86.4922 18.9582 86.7422C18.9584 86.9923 19.0096 87.2399 19.109 87.4708C19.2084 87.7018 19.3539 87.9116 19.5372 88.0883C19.7206 88.2649 19.9382 88.405 20.1776 88.5005C20.417 88.596 20.6736 88.6451 20.9327 88.6448C21.1918 88.6446 21.4482 88.5951 21.6875 88.4992C22.5817 88.1633 23.5074 87.9113 24.4516 87.7467C24.7944 88.4989 25.1694 89.233 25.5766 89.949C24.7147 90.2042 23.8867 90.5559 23.1095 90.9969C22.8855 91.1248 22.69 91.2944 22.5343 91.4958C22.3787 91.6971 22.2659 91.9263 22.2026 92.17C22.1393 92.4137 22.1266 92.6671 22.1654 92.9155C22.2042 93.1639 22.2936 93.4025 22.4285 93.6173C22.5634 93.8322 22.7411 94.0191 22.9514 94.1673C23.1616 94.3154 23.4001 94.4218 23.6533 94.4804C23.9064 94.539 24.169 94.5485 24.426 94.5084C24.6829 94.4684 24.9291 94.3796 25.1502 94.2471C25.986 93.7971 26.8888 93.4744 27.8266 93.2904C32.4706 99.187 39.4726 103.091 47.0022 103.091C54.5319 103.091 61.5327 99.187 66.1779 93.2915C67.1155 93.4756 68.0182 93.7979 68.8542 94.2471C69.0755 94.3842 69.3229 94.4772 69.582 94.5206C69.8411 94.5639 70.1065 94.5567 70.3627 94.4994C70.6188 94.4421 70.8605 94.3358 71.0734 94.1869C71.2863 94.038 71.4661 93.8494 71.6023 93.6323C71.7385 93.4152 71.8282 93.1739 71.8662 92.9228C71.9042 92.6716 71.8897 92.4157 71.8236 92.1701C71.7575 91.9244 71.641 91.6941 71.4811 91.4926C71.3213 91.2911 71.1212 91.1225 70.8927 90.9969C70.1155 90.5559 69.2875 90.2042 68.4256 89.949C68.8351 89.2344 69.2101 88.5003 69.5506 87.7467C70.4949 87.9113 71.4205 88.1633 72.3147 88.4992C72.7972 88.6922 73.3393 88.6923 73.8218 88.4994C74.3043 88.3065 74.6877 87.9366 74.8876 87.4708C75.0875 87.0051 75.0876 86.4818 74.8878 86.0161C74.688 85.5503 74.3047 85.1803 73.8222 84.9873L73.8256 84.9819ZM64.9887 55.0958C65.4895 57.4292 65.7323 59.8073 65.7132 62.1902C64.0799 60.5675 62.197 59.1976 60.131 58.1288C61.6708 57.0039 63.2945 55.9902 64.9887 55.0958ZM29.0112 55.0958C30.7096 55.9842 32.3345 56.9979 33.8713 58.1277C31.8045 59.1963 29.9212 60.5666 28.2879 62.1902C28.2679 59.8074 28.5104 57.4292 29.0112 55.0958ZM61.2335 89.2105C60.761 89.2801 60.3309 89.5136 60.024 89.8674C59.717 90.2211 59.5542 90.6707 59.5661 91.132C59.578 91.5932 59.7637 92.0345 60.0884 92.3731C60.4132 92.7116 60.8547 92.9243 61.3302 92.9711C59.5089 94.9053 57.2997 96.4622 54.8363 97.5475C52.373 98.6328 49.707 99.2238 47 99.2848C44.2933 99.2237 41.6276 98.6327 39.1645 97.5476C36.7014 96.4625 34.4922 94.9059 32.6709 92.9722C33.1473 92.9262 33.5898 92.7138 33.9154 92.3749C34.2409 92.0361 34.4271 91.5941 34.4388 91.1321C34.4506 90.6701 34.2871 90.2199 33.9791 89.866C33.6712 89.5122 33.24 89.2791 32.7665 89.2105C31.7267 89.0866 30.6757 89.076 29.6334 89.179C29.2704 88.6122 28.931 88.029 28.6153 87.4296C29.7418 87.4638 30.8608 87.6208 31.9509 87.8976C32.2006 87.9636 32.4614 87.9813 32.7182 87.9498C32.9751 87.9184 33.2229 87.8383 33.4477 87.7142C33.6724 87.5902 33.8696 87.4245 34.028 87.2268C34.1863 87.0291 34.3027 86.8031 34.3705 86.5619C34.4382 86.3207 34.456 86.069 34.4229 85.8211C34.3897 85.5733 34.3062 85.3342 34.1772 85.1175C34.0481 84.9008 33.8761 84.7108 33.6709 84.5584C33.4657 84.406 33.2314 84.2942 32.9814 84.2293C31.0445 83.7323 29.0397 83.5275 27.038 83.6223C26.3942 81.5489 26.066 79.3961 26.0637 77.2315C26.0637 66.5894 34.8691 58.864 47 58.864C59.1309 58.864 67.9362 66.5883 67.9362 77.2315C67.934 79.3957 67.6058 81.5481 66.962 83.6212C64.9602 83.527 62.9554 83.7321 61.0186 84.2293C60.7686 84.2942 60.5343 84.406 60.3291 84.5584C60.1239 84.7108 59.9518 84.9008 59.8228 85.1175C59.6938 85.3342 59.6103 85.5733 59.5771 85.8211C59.544 86.069 59.5618 86.3207 59.6295 86.5619C59.6973 86.8031 59.8137 87.0291 59.972 87.2268C60.1304 87.4245 60.3275 87.5902 60.5523 87.7142C60.7771 87.8383 61.0249 87.9184 61.2818 87.9498C61.5386 87.9813 61.7994 87.9636 62.0491 87.8976C63.1391 87.6203 64.2581 87.4632 65.3847 87.4296C65.0712 88.029 64.7319 88.6122 64.3666 89.179C63.3243 89.0759 62.2733 89.0865 61.2335 89.2105Z" fill="#F4E6E6"/>
<path d="M53.6375 89.5558C51.7554 90.7102 50.7125 90.7797 50.2468 90.7167C51.4897 89.4115 52.208 87.7201 52.2717 85.9483C52.2717 84.1522 51.3571 82.0107 46.9989 82.0107C42.6406 82.0107 41.7249 84.1522 41.7249 85.9483C41.7887 87.7201 42.507 89.4114 43.7499 90.7167C43.2841 90.7797 42.2401 90.7102 40.3591 89.5558C39.9185 89.2902 39.387 89.2035 38.8804 89.3145C38.3738 89.4256 37.9333 89.7253 37.6547 90.1486C37.3761 90.5718 37.2821 91.0841 37.3931 91.574C37.5041 92.0638 37.8112 92.4914 38.2475 92.7637C39.7903 93.8214 41.6108 94.4379 43.5001 94.5424C44.119 94.5455 44.7338 94.4448 45.317 94.2449C45.9464 94.0177 46.5197 93.6659 47 93.2122C47.4798 93.6654 48.0522 94.0171 48.6808 94.2449C49.2638 94.4453 49.8787 94.546 50.4976 94.5424C52.3869 94.4378 54.2073 93.8213 55.7503 92.7637C55.9685 92.6298 56.1572 92.4557 56.3057 92.2514C56.4542 92.047 56.5596 91.8165 56.6158 91.5729C56.672 91.3292 56.6779 91.0773 56.6333 90.8315C56.5886 90.5856 56.4942 90.3507 56.3555 90.1401C56.2168 89.9294 56.0364 89.7472 55.8248 89.6039C55.6131 89.4605 55.3742 89.3588 55.1219 89.3046C54.8695 89.2503 54.6085 89.2446 54.3538 89.2877C54.0991 89.3308 53.8557 89.4219 53.6375 89.5558ZM45.6624 85.9244C46.5462 85.7739 47.4504 85.7739 48.3342 85.9244V85.9483C48.3153 86.4246 48.1868 86.8907 47.9582 87.3131C47.7296 87.7355 47.4065 88.1036 47.0124 88.3906C46.61 88.1092 46.2793 87.743 46.0454 87.3199C45.8115 86.8967 45.6805 86.4277 45.6624 85.9483V85.9244Z" fill="#F4E6E6"/>
</svg>
