<svg width="40" height="25" viewBox="0 0 40 25" fill="none" xmlns="http://www.w3.org/2000/svg">
<path d="M35.7143 6.10352e-05H4.28571C1.91878 6.10352e-05 0 1.67899 0 3.75006V21.25C0 23.3211 1.91878 25 4.28571 25H35.7143C38.0812 25 40 23.3211 40 21.25V3.75006C40 1.67899 38.0812 6.10352e-05 35.7143 6.10352e-05ZM37.1428 14.4825L28.1529 6.61632C27.595 6.1283 26.6907 6.1283 26.1329 6.61632L14.2857 16.9825L9.58141 12.8662C9.0236 12.3782 8.11925 12.3782 7.56143 12.8662L2.85711 16.9825V3.75006C2.85711 3.05968 3.49671 2.50003 4.28571 2.50003H35.7143C36.5033 2.50003 37.1429 3.05968 37.1429 3.75006V14.4825H37.1428Z" fill="white"/>
</svg>
