<svg width="26" height="27" viewBox="0 0 26 27" fill="none" xmlns="http://www.w3.org/2000/svg">
<path d="M26 16.0312C26 15.3551 25.7411 14.7251 25.2948 14.2605C25.8007 13.6856 26.0585 12.9149 25.9881 12.1129C25.8613 10.683 24.6209 9.56246 23.1628 9.56246H16.471C16.8025 8.51732 17.3333 6.60148 17.3333 5.06248C17.3333 2.62236 15.3368 0.5625 14.0833 0.5625C12.9588 0.5625 12.1539 1.22063 12.1203 1.24763C11.9914 1.35452 11.9166 1.51652 11.9166 1.68748V5.50234L8.79557 12.5212L8.66663 12.5898V12.3749C8.66663 12.0644 8.42395 11.8124 8.12495 11.8124H2.70832C1.21443 11.8125 0 13.0736 0 14.625V23.625C0 25.1764 1.21443 26.4375 2.70832 26.4375H5.95832C7.12938 26.4375 8.13038 25.6612 8.50738 24.5778C9.40875 25.0594 10.6221 25.3125 11.375 25.3125H21.3189C22.4987 25.3125 23.5311 24.4867 23.7738 23.3482C23.8983 22.761 23.8258 22.1704 23.5788 21.6574C24.3783 21.24 24.9167 20.3816 24.9167 19.4062C24.9167 19.008 24.8289 18.6266 24.6632 18.2824C25.4627 17.8639 26 17.0066 26 16.0312ZM23.7153 17.4195C23.5062 17.4454 23.3296 17.5927 23.2624 17.8008C23.1964 18.009 23.2516 18.2373 23.4054 18.3881C23.6806 18.657 23.8334 19.0192 23.8334 19.4062C23.8334 20.1161 23.3166 20.7124 22.6331 20.7945C22.424 20.8204 22.2474 20.9677 22.1802 21.1758C22.1142 21.384 22.1694 21.6123 22.3232 21.7631C22.6797 22.1118 22.8227 22.6012 22.7154 23.1052C22.5822 23.733 21.995 24.1875 21.319 24.1875H11.375C10.4953 24.1875 9.01982 23.7589 8.5085 23.2267C8.35357 23.067 8.11957 23.0198 7.91807 23.1052C7.7155 23.1919 7.58332 23.3978 7.58332 23.625C7.58332 24.5554 6.85425 25.3125 5.95832 25.3125H2.70832C1.81238 25.3125 1.08332 24.5554 1.08332 23.625V14.625C1.08332 13.6946 1.81238 12.9375 2.70832 12.9375H7.58332V13.5C7.58332 13.6946 7.68082 13.8757 7.84113 13.9792C7.99932 14.0782 8.19863 14.0883 8.36763 14.0029L9.45095 13.4403C9.56038 13.3841 9.64813 13.2896 9.70013 13.1737L12.9501 5.8612C12.9826 5.78695 12.9999 5.70595 12.9999 5.62495V1.99234C13.2253 1.86298 13.6164 1.68748 14.0833 1.68748C14.677 1.68748 16.25 3.21973 16.25 5.06248C16.25 7.0425 15.2122 9.89659 15.2024 9.92475C15.1396 10.0969 15.1613 10.2915 15.262 10.4445C15.3638 10.5964 15.5307 10.6875 15.7083 10.6875H23.1628C24.0662 10.6875 24.8333 11.3591 24.9091 12.2164C24.9665 12.8576 24.6696 13.4674 24.1378 13.8083C23.972 13.914 23.8734 14.1053 23.881 14.3089C23.8886 14.5125 24.0013 14.6947 24.1746 14.7881C24.6328 15.03 24.9166 15.507 24.9166 16.0312C24.9167 16.7411 24.3999 17.3374 23.7153 17.4195Z" fill="#544747"/>
<path d="M8.125 12.9375C7.826 12.9375 7.58331 13.1895 7.58331 13.5V23.625C7.58331 23.9355 7.826 24.1875 8.125 24.1875C8.424 24.1875 8.66668 23.9355 8.66668 23.625V13.5C8.66668 13.1895 8.424 12.9375 8.125 12.9375Z" fill="#544747"/>
</svg>
