<svg width="23" height="22" viewBox="0 0 23 22" fill="none" xmlns="http://www.w3.org/2000/svg">
<path d="M21.2279 0H1.77209C1.27052 0 0.863892 0.288578 0.863892 0.644531V21.3555C0.863892 21.6162 1.08519 21.8512 1.42456 21.9509C1.53693 21.984 1.65494 22 1.77191 22C2.00829 22 2.24055 21.9346 2.41432 21.8112L11.5002 15.3633L20.5856 21.8112C20.8454 21.9955 21.236 22.0507 21.5754 21.9509C21.9148 21.8512 22.1361 21.6162 22.1361 21.3555V0.644531C22.1361 0.288578 21.7294 0 21.2279 0ZM11.5001 13.8072C11.2592 13.8072 11.0283 13.8751 10.8579 13.996L2.6803 19.7994V1.28906H20.3196V19.7994L12.1423 13.996C11.972 13.8751 11.741 13.8072 11.5001 13.8072Z" fill="#544747"/>
</svg>
