<svg width="29" height="31" viewBox="0 0 29 31" fill="none" xmlns="http://www.w3.org/2000/svg">
<g clip-path="url(#clip0)">
<path d="M19.8218 18.3954C23.2533 13.1407 22.1056 5.86452 17.2601 2.1442C12.4145 -1.57613 5.70481 -0.332465 2.27413 4.92311C-1.15654 10.1778 -0.00970539 17.4531 4.83669 21.1734C8.29523 23.8288 12.8678 24.0332 16.5157 21.697L24.4419 30.2409C25.2978 31.2179 26.7217 31.257 27.6226 30.3289C28.5235 29.4017 28.5596 27.8576 27.7046 26.8806C27.6775 26.8495 27.6513 26.821 27.6226 26.7917L19.8218 18.3954ZM11.0414 19.1919C7.21234 19.1928 4.10792 15.829 4.10547 11.6766C4.10465 7.52422 7.2066 4.15771 11.0365 4.15593C14.8607 4.15415 17.9634 7.51267 17.9708 11.6597C17.9774 15.813 14.877 19.1848 11.0463 19.1919C11.0447 19.1919 11.0439 19.1919 11.0414 19.1919Z" fill="white"/>
</g>
<defs>
<clipPath id="clip0">
<rect width="28.5865" height="31" fill="white" transform="translate(0.0410156)"/>
</clipPath>
</defs>
</svg>
