<svg width="38" height="38" viewBox="0 0 38 38" fill="none" xmlns="http://www.w3.org/2000/svg">
<g clip-path="url(#clip0)">
<path d="M33.983 32.0514L31.3704 27.5199C30.1638 25.4284 29.5263 23.0328 29.5263 20.5944V16.625C29.5263 11.6138 26.3126 7.37519 21.9182 6.00875V3.16669C21.9182 1.42025 20.5533 0 18.875 0C17.1966 0 15.8317 1.42025 15.8317 3.16669V6.00875C11.4374 7.37519 8.22377 11.6138 8.22377 16.625V20.5944C8.22377 23.0328 7.58619 25.4267 6.38108 27.5184L3.76851 32.0499C3.627 32.2953 3.62393 32.5993 3.75938 32.8479C3.89482 33.0964 4.14589 33.2501 4.41978 33.2501H33.3302C33.6041 33.2501 33.8567 33.0965 33.9921 32.8495C34.1276 32.6024 34.123 32.2952 33.983 32.0514Z" fill="white"/>
<path d="M14.0835 34.8333C14.9417 36.6985 16.7585 38 18.875 38C20.9915 38 22.8084 36.6985 23.6665 34.8333H14.0835Z" fill="white"/>
</g>
<defs>
<clipPath id="clip0">
<rect width="36.5185" height="38" fill="white" transform="translate(0.616211)"/>
</clipPath>
</defs>
</svg>
