<svg width="31" height="44" viewBox="0 0 31 44" fill="none" xmlns="http://www.w3.org/2000/svg">
<g clip-path="url(#clip0)">
<path d="M30.731 14.3432C30.731 11.534 30.731 9.56874 30.731 9.38233C30.731 7.296 29.5234 5.59864 28.039 5.59864H27.6801V10.2232C27.6801 10.9197 27.2783 11.4844 26.7827 11.4844C26.2872 11.4844 25.8854 10.9197 25.8854 10.2232C25.8854 8.80729 25.8854 4.90647 25.8854 3.49658C25.8854 2.80005 25.4836 2.23535 24.9881 2.23535C24.4925 2.23535 24.0907 2.80005 24.0907 3.49658V5.59864H18.1085V10.2232C18.1085 10.9197 17.7067 11.4844 17.2112 11.4844C16.7156 11.4844 16.3138 10.9197 16.3138 10.2232C16.3138 8.80729 16.3138 4.90647 16.3138 3.49658C16.3138 2.80005 15.912 2.23535 15.4165 2.23535C14.9209 2.23535 14.5191 2.80005 14.5191 3.49658V5.59864H8.5369V10.2232C8.5369 10.9197 8.13513 11.4844 7.63956 11.4844C7.14399 11.4844 6.74222 10.9197 6.74222 10.2232C6.74222 8.80729 6.74222 4.90647 6.74222 3.49658C6.74222 2.80005 6.34045 2.23535 5.84488 2.23535C5.34932 2.23535 4.94755 2.80005 4.94755 3.49658V5.59864H2.79394C1.30956 5.59864 0.101929 7.296 0.101929 9.38233V14.3432H30.731Z" fill="white"/>
<path d="M0.101929 16.8656V37.2976C0.101929 39.3839 1.30956 41.0813 2.79394 41.0813H28.039C29.5234 41.0813 30.731 39.3839 30.731 37.2976C30.731 36.7573 30.731 24.9533 30.731 16.8656C30.1726 16.8656 0.410852 16.8656 0.101929 16.8656ZM8.71636 34.3547H6.80204C6.30647 34.3547 5.90471 33.79 5.90471 33.0935C5.90471 32.3969 6.30647 31.8322 6.80204 31.8322H8.71636C9.21193 31.8322 9.6137 32.3969 9.6137 33.0935C9.6137 33.79 9.21193 34.3547 8.71636 34.3547ZM8.71636 28.9734H6.80204C6.30647 28.9734 5.90471 28.4087 5.90471 27.7122C5.90471 27.0157 6.30647 26.451 6.80204 26.451H8.71636C9.21193 26.451 9.6137 27.0157 9.6137 27.7122C9.6137 28.4087 9.21193 28.9734 8.71636 28.9734ZM8.71636 23.5922H6.80204C6.30647 23.5922 5.90471 23.0275 5.90471 22.3309C5.90471 21.6344 6.30647 21.0697 6.80204 21.0697H8.71636C9.21193 21.0697 9.6137 21.6344 9.6137 22.3309C9.6137 23.0275 9.21193 23.5922 8.71636 23.5922ZM16.3736 34.3547H14.4593C13.9637 34.3547 13.562 33.79 13.562 33.0935C13.562 32.3969 13.9637 31.8322 14.4593 31.8322H16.3736C16.8692 31.8322 17.271 32.3969 17.271 33.0935C17.271 33.79 16.8692 34.3547 16.3736 34.3547ZM16.3736 28.9734H14.4593C13.9637 28.9734 13.562 28.4087 13.562 27.7122C13.562 27.0157 13.9637 26.451 14.4593 26.451H16.3736C16.8692 26.451 17.271 27.0157 17.271 27.7122C17.271 28.4087 16.8692 28.9734 16.3736 28.9734ZM16.3736 23.5922H14.4593C13.9637 23.5922 13.562 23.0275 13.562 22.3309C13.562 21.6344 13.9637 21.0697 14.4593 21.0697H16.3736C16.8692 21.0697 17.271 21.6344 17.271 22.3309C17.271 23.0275 16.8692 23.5922 16.3736 23.5922ZM24.0309 34.3547H22.1166C21.621 34.3547 21.2193 33.79 21.2193 33.0935C21.2193 32.3969 21.621 31.8322 22.1166 31.8322H24.0309C24.5265 31.8322 24.9282 32.3969 24.9282 33.0935C24.9282 33.79 24.5265 34.3547 24.0309 34.3547ZM24.0309 28.9734H22.1166C21.621 28.9734 21.2193 28.4087 21.2193 27.7122C21.2193 27.0157 21.621 26.451 22.1166 26.451H24.0309C24.5265 26.451 24.9282 27.0157 24.9282 27.7122C24.9282 28.4087 24.5265 28.9734 24.0309 28.9734ZM24.0309 23.5922H22.1166C21.621 23.5922 21.2193 23.0275 21.2193 22.3309C21.2193 21.6344 21.621 21.0697 22.1166 21.0697H24.0309C24.5265 21.0697 24.9282 21.6344 24.9282 22.3309C24.9282 23.0275 24.5265 23.5922 24.0309 23.5922Z" fill="white"/>
</g>
<defs>
<clipPath id="clip0">
<rect width="30.6291" height="43.05" fill="white" transform="translate(0.101929 0.133301)"/>
</clipPath>
</defs>
</svg>
