<svg width="34" height="45" viewBox="0 0 34 45" fill="none" xmlns="http://www.w3.org/2000/svg">
<g clip-path="url(#clip0)">
<path d="M28.9696 23.6686H26.4187C26.6787 24.6184 26.8208 25.6434 26.8208 26.7116V39.5742C26.8208 40.0195 26.7627 40.4471 26.6569 40.8447H30.8742C32.4496 40.8447 33.7312 39.1348 33.7312 37.0331V30.0212C33.7312 26.5184 31.5952 23.6686 28.9696 23.6686Z" fill="white"/>
<path d="M7.65645 26.7118C7.65645 25.6434 7.7985 24.6185 8.05852 23.6688H5.50757C2.88202 23.6688 0.745972 26.5185 0.745972 30.0214V37.0333C0.745972 39.135 2.02756 40.8449 3.60293 40.8449H7.82028C7.71456 40.4471 7.65645 40.0197 7.65645 39.5743V26.7118Z" fill="white"/>
<path d="M20.1546 20.3591H14.3228C11.6972 20.3591 9.56116 23.2089 9.56116 26.7117V39.5743C9.56116 40.2759 9.98752 40.8448 10.5135 40.8448H23.9638C24.4898 40.8448 24.9162 40.276 24.9162 39.5743V26.7117C24.9162 23.2089 22.7801 20.3591 20.1546 20.3591Z" fill="white"/>
<path d="M17.2386 3.51495C14.0811 3.51495 11.5122 6.94215 11.5122 11.1548C11.5122 14.0123 12.6943 16.5079 14.4401 17.8181C15.2681 18.4395 16.2228 18.7947 17.2386 18.7947C18.2545 18.7947 19.2091 18.4395 20.0371 17.8181C21.783 16.5079 22.965 14.0122 22.965 11.1548C22.965 6.94224 20.3962 3.51495 17.2386 3.51495Z" fill="white"/>
<path d="M7.18312 10.6359C4.82165 10.6359 2.90051 13.1989 2.90051 16.3494C2.90051 19.5 4.82165 22.063 7.18312 22.063C7.78214 22.063 8.35255 21.8975 8.87071 21.5999C9.7666 21.0853 10.5053 20.1744 10.9624 19.0334C11.2832 18.2326 11.4657 17.319 11.4657 16.3494C11.4657 13.199 9.54459 10.6359 7.18312 10.6359Z" fill="white"/>
<path d="M27.2941 10.6359C24.9326 10.6359 23.0115 13.1989 23.0115 16.3494C23.0115 17.3191 23.194 18.2327 23.5148 19.0334C23.9719 20.1745 24.7106 21.0854 25.6065 21.5999C26.1246 21.8975 26.6951 22.063 27.2941 22.063C29.6556 22.063 31.5767 19.5 31.5767 16.3494C31.5767 13.1989 29.6556 10.6359 27.2941 10.6359Z" fill="white"/>
</g>
<defs>
<clipPath id="clip0">
<rect width="32.9852" height="44.0067" fill="white" transform="translate(0.745972 0.176636)"/>
</clipPath>
</defs>
</svg>
