<svg width="125" height="127" viewBox="0 0 125 127" fill="none" xmlns="http://www.w3.org/2000/svg">
<g filter="url(#filter0_f)">
<path d="M62.5 4.76367C30.1917 4.76367 4 31.0612 4 63.5C4 95.9388 30.1917 122.236 62.5 122.236C94.8083 122.236 121 95.9388 121 63.5C120.964 31.0765 94.7931 4.8 62.5 4.76367ZM64.5881 21.6972L84.925 13.5349C87.233 14.5837 89.4658 15.792 91.6072 17.1515L91.6605 17.1849C93.7647 18.5233 95.7757 20.0041 97.68 21.6169L97.8438 21.7603C98.6978 22.4907 99.5281 23.2469 100.336 24.027C100.437 24.1273 100.544 24.2229 100.646 24.3252C101.492 25.155 102.312 26.0107 103.105 26.8911C103.171 26.9657 103.234 27.0441 103.3 27.1187C103.996 27.9016 104.665 28.7123 105.314 29.5364C105.47 29.7323 105.627 29.9283 105.778 30.1243C106.483 31.0401 107.164 31.9722 107.808 32.934L103.754 50.2375L83.8072 56.9142L64.5928 41.4777L64.5881 21.6972ZM19.2201 30.1358C19.3715 29.9398 19.5257 29.7438 19.6819 29.5488C20.3236 28.7314 20.9873 27.9341 21.6728 27.1559C21.7471 27.0737 21.8157 26.9896 21.889 26.9074C22.6773 26.025 23.4933 25.1703 24.3388 24.3424C24.436 24.2468 24.5331 24.1465 24.635 24.0585C25.4357 23.2832 26.2593 22.5318 27.1058 21.8052L27.301 21.6408C29.1881 20.0395 31.18 18.5682 33.2633 17.2356L33.3395 17.1868C35.4685 15.8303 37.687 14.6238 39.9817 13.5741L60.4119 21.6972V41.472L41.1966 56.9055L21.2501 50.2413L17.1958 32.9378C17.8452 31.978 18.5193 31.0478 19.2201 30.1358ZM16.8702 93.5441C16.297 92.6665 15.7486 91.7726 15.2258 90.8615L15.0992 90.6417C14.5793 89.7354 14.0871 88.8138 13.6234 87.8779L13.6072 87.8482C12.6303 85.8789 11.7724 83.8522 11.0392 81.7786V81.7595C10.6927 80.7806 10.3765 79.7777 10.0842 78.7691L9.97854 78.3973C9.71099 77.4499 9.46819 76.492 9.2511 75.5236C9.23206 75.4289 9.20825 75.339 9.18921 75.2454C8.71028 73.058 8.36655 70.844 8.15898 68.6136L20.0637 54.2708L39.8722 60.8997L45.6213 83.987L36.175 96.6061L16.8702 93.5441ZM75.4854 116.74C74.5104 116.983 73.5097 117.192 72.509 117.381C72.369 117.409 72.2262 117.432 72.0862 117.457C71.2341 117.61 70.3724 117.741 69.5088 117.848C69.2783 117.878 69.0498 117.909 68.8204 117.937C68.0187 118.031 67.2093 118.102 66.3981 118.16C66.1429 118.177 65.8906 118.203 65.6354 118.219C64.5985 118.283 63.5531 118.321 62.5 118.321C61.5355 118.321 60.5767 118.295 59.6236 118.244C59.5084 118.244 59.3979 118.225 59.2827 118.216C58.4343 118.168 57.5898 118.104 56.7471 118.021L56.65 118.003C54.8038 117.802 52.968 117.508 51.1513 117.123L39.617 98.9904L48.9147 86.5424H76.0853L85.5353 99.0726L75.4854 116.74ZM115.825 75.2473C115.805 75.341 115.782 75.4318 115.762 75.5255C115.544 76.4929 115.301 77.4508 115.035 78.3992L114.93 78.7711C114.637 79.7796 114.322 80.7786 113.974 81.7614V81.7805C113.241 83.8541 112.384 85.8808 111.406 87.8502L111.39 87.8798C110.923 88.8167 110.432 89.7382 109.914 90.6436L109.788 90.8634C109.268 91.7774 108.72 92.6693 108.146 93.5421L88.9069 96.5879L79.3949 83.9793L85.1411 60.8978L104.95 54.2689L116.854 68.6117C116.648 70.843 116.304 73.059 115.825 75.2473Z" fill="#F4E6E6"/>
</g>
<defs>
<filter id="filter0_f" x="0" y="0.763672" width="125" height="125.473" filterUnits="userSpaceOnUse" color-interpolation-filters="sRGB">
<feFlood flood-opacity="0" result="BackgroundImageFix"/>
<feBlend mode="normal" in="SourceGraphic" in2="BackgroundImageFix" result="shape"/>
<feGaussianBlur stdDeviation="2" result="effect1_foregroundBlur"/>
</filter>
</defs>
</svg>
