<svg width="38" height="38" viewBox="0 0 38 38" fill="none" xmlns="http://www.w3.org/2000/svg">
<path d="M36.6819 16.5794L20.1207 0.531646C19.3938 -0.172846 18.2976 -0.17277 17.571 0.53157L1.00976 16.5795C0.427456 17.1438 0.235111 18.0132 0.519592 18.7943C0.804145 19.5755 1.49696 20.0802 2.28473 20.0802H4.92984V36.1589C4.92984 36.7963 5.41589 37.3132 6.01535 37.3132H15.0929C15.6924 37.3132 16.1784 36.7964 16.1784 36.1589V26.3964H21.5135V36.1589C21.5135 36.7964 21.9996 37.3133 22.599 37.3133H31.6762C32.2756 37.3133 32.7617 36.7965 32.7617 36.1589V20.0802H35.4073C36.195 20.0802 36.8879 19.5754 37.1724 18.7943C37.4566 18.0131 37.2642 17.1438 36.6819 16.5794Z" fill="white"/>
</svg>
