<svg width="38" height="37" viewBox="0 0 38 37" fill="none" xmlns="http://www.w3.org/2000/svg">
<g clip-path="url(#clip0)">
<path d="M19.1536 17.5148C21.5963 17.5148 23.7115 16.652 25.4398 14.9496C27.1681 13.2474 28.0442 11.1648 28.0442 8.75877C28.0442 6.35357 27.1681 4.27065 25.4395 2.56798C23.711 0.86614 21.596 0.0032959 19.1536 0.0032959C16.7105 0.0032959 14.5959 0.86614 12.8676 2.56825C11.1393 4.27037 10.2629 6.35329 10.2629 8.75877C10.2629 11.1648 11.1393 13.2477 12.8679 14.9498C14.5965 16.6517 16.7114 17.5148 19.1536 17.5148Z" fill="white"/>
<path d="M34.7097 27.9572C34.6599 27.2488 34.5591 26.4761 34.4107 25.6601C34.2609 24.838 34.0679 24.0609 33.837 23.3506C33.5985 22.6164 33.2741 21.8914 32.873 21.1967C32.4568 20.4756 31.9679 19.8476 31.4193 19.3309C30.8457 18.7904 30.1433 18.3558 29.3312 18.0387C28.5218 17.7234 27.6248 17.5636 26.6654 17.5636C26.2886 17.5636 25.9242 17.7159 25.2204 18.1672C24.7873 18.4453 24.2807 18.7671 23.7152 19.1229C23.2316 19.4263 22.5766 19.7106 21.7675 19.968C20.9781 20.2196 20.1767 20.3471 19.3856 20.3471C18.5945 20.3471 17.7933 20.2196 17.0031 19.968C16.1949 19.7109 15.5399 19.4266 15.0569 19.1232C14.4967 18.7707 13.9898 18.4489 13.5502 18.1669C12.8473 17.7156 12.4826 17.5634 12.1058 17.5634C11.1461 17.5634 10.2494 17.7234 9.44033 18.039C8.62871 18.3555 7.92608 18.7901 7.35187 19.3312C6.80356 19.8482 6.31439 20.4758 5.89873 21.1967C5.49799 21.8914 5.17357 22.6162 4.93476 23.3509C4.70411 24.0612 4.5112 24.838 4.36139 25.6601C4.21297 26.475 4.11215 27.248 4.06231 27.958C4.01331 28.6536 3.98853 29.3755 3.98853 30.1047C3.98853 32.0023 4.60104 33.5386 5.80889 34.6716C7.00182 35.7896 8.58028 36.3568 10.4998 36.3568H28.2731C30.1926 36.3568 31.7705 35.7899 32.9637 34.6716C34.1719 33.5394 34.7844 32.0029 34.7844 30.1044C34.7841 29.3719 34.759 28.6494 34.7097 27.9572Z" fill="white"/>
</g>
<defs>
<clipPath id="clip0">
<rect width="36.912" height="36.3533" fill="white" transform="translate(0.960571 0.0032959)"/>
</clipPath>
</defs>
</svg>
