<svg width="20" height="20" viewBox="0 0 20 20" fill="none" xmlns="http://www.w3.org/2000/svg">
<path d="M14.5736 4.44834L14.5929 4.59682L14.3704 4.64289L14.3407 4.95918H14.6073L14.9618 4.92505L15.1449 4.70746L14.9503 4.63178L14.8438 4.50921L14.6838 4.25008L14.6073 3.88361L14.3066 3.94489L14.2223 4.07404V4.21965L14.3671 4.31877L14.5736 4.44834Z" fill="#5C5353"/>
<path d="M14.3173 4.57006L14.3333 4.37181L14.1569 4.29572L13.9101 4.35289L13.7271 4.64656V4.837H13.9405L14.3173 4.57006Z" fill="#5C5353"/>
<path d="M9.23765 5.41203L9.18336 5.55188H8.92053V5.68761H8.98305C8.98305 5.68761 8.98675 5.7164 8.9921 5.75424L9.15333 5.74067L9.25411 5.67815L9.28043 5.55188L9.41081 5.54077L9.46223 5.43465L9.34254 5.40997L9.23765 5.41203Z" fill="#5C5353"/>
<path d="M8.56021 5.65841L8.54993 5.79126L8.74036 5.77522L8.76011 5.64196L8.64576 5.55188L8.56021 5.65841Z" fill="#5C5353"/>
<path d="M19.9975 9.89656C19.9947 9.60411 19.9798 9.31373 19.9523 9.02787C19.8597 8.07486 19.6319 7.16134 19.2905 6.30499C19.265 6.24123 19.2415 6.17666 19.2144 6.11373C18.7595 5.03897 18.1207 4.06046 17.3388 3.21604C17.2874 3.16093 17.2352 3.10663 17.1829 3.05316C17.0353 2.89974 16.8835 2.75003 16.7264 2.60648C14.9487 0.987969 12.5878 0 9.99979 0C7.39003 0 5.01224 1.00566 3.22961 2.64884C2.81419 3.03177 2.43249 3.44967 2.08617 3.89717C0.779846 5.58684 0 7.70344 0 9.99979C0 15.5142 4.48617 20 10.0002 20C13.8789 20 17.2463 17.7789 18.9039 14.5427C19.2584 13.8509 19.5344 13.1134 19.7203 12.3406C19.7676 12.1444 19.8083 11.9474 19.8437 11.7479C19.9445 11.1798 19.9996 10.5958 19.9996 9.99979C20 9.96524 19.9979 9.93111 19.9975 9.89656ZM18.1154 5.89985L18.1734 5.83486C18.2495 5.98252 18.3206 6.13265 18.3885 6.28483L18.2939 6.28113L18.1154 6.30581V5.89985ZM16.6704 4.15506L16.6721 3.70838C16.8292 3.87496 16.9806 4.04648 17.1253 4.22416L16.9452 4.49234L16.3155 4.48658L16.276 4.35537L16.6704 4.15506ZM4.60751 3.04494V3.02807H4.80781L4.82509 2.95938H5.1529V3.10252L5.05871 3.22838H4.60709L4.60751 3.04494ZM4.92751 3.49121C4.92751 3.49121 5.12781 3.45707 5.14509 3.45707C5.16236 3.45707 5.14509 3.65697 5.14509 3.65697L4.69347 3.68535L4.60751 3.58252L4.92751 3.49121ZM18.7525 7.46077H18.0208L17.5749 7.12884L17.1056 7.1745V7.46077H16.9571L16.7967 7.34643L15.984 7.14036V6.61388L14.954 6.69409L14.6349 6.8656H14.226L14.0257 6.84545L13.5293 7.12103V7.63969L12.5145 8.37183L12.5989 8.68442H12.8045L12.7506 8.98221L12.6059 9.03527L12.598 9.81347L13.475 10.8121H13.8567L13.8797 10.7513H14.5658L14.7636 10.5682H15.1527L15.3662 10.7821L15.9461 10.8422L15.8692 11.6134L16.5129 12.7498L16.174 13.3976L16.197 13.7028L16.464 13.9689V14.7027L16.8144 15.1741V15.7837H17.1171C15.4324 17.8521 12.8683 19.177 9.99938 19.177C4.93943 19.1774 0.822622 15.0602 0.822622 9.99979C0.822622 8.72596 1.08422 7.51177 1.55517 6.40823V6.12195L1.88339 5.72339C1.99733 5.50828 2.11949 5.29851 2.24987 5.09409L2.26468 5.26067L1.8838 5.72339C1.76576 5.94632 1.65553 6.17419 1.55558 6.40823V6.93059L1.93686 7.11404V7.84L2.30252 8.46396L2.5999 8.50961L2.63815 8.29573L2.2873 7.75445L2.21861 7.22838H2.42427L2.51105 7.76967L3.0182 8.50961L2.8874 8.74859L3.20987 9.24175L4.01069 9.44V9.31044L4.33111 9.35609L4.30067 9.58478L4.55239 9.63085L4.94108 9.73697L5.49018 10.3626L6.19146 10.4156L6.26015 10.9878L5.78015 11.3234L5.75753 11.8342L5.68884 12.1468L6.38314 13.0159L6.43619 13.3137C6.43619 13.3137 6.68792 13.382 6.71877 13.382C6.7492 13.382 7.28308 13.7863 7.28308 13.7863V15.3571L7.47352 15.4106L7.34396 16.1353L7.66437 16.5627L7.60514 17.2808L8.02838 18.0249L8.57172 18.4995L9.11794 18.5094L9.17141 18.3338L8.76997 17.9957L8.79301 17.8279L8.86499 17.6222L8.88021 17.4124L8.60874 17.4042L8.47177 17.2323L8.69717 17.0155L8.72761 16.8518L8.47589 16.7798L8.49069 16.6277L8.84936 16.5734L9.39476 16.3114L9.57779 15.9757L10.1499 15.2436L10.0199 14.6711L10.1956 14.3663L10.7216 14.3823L11.0758 14.1018L11.1901 12.997L11.5829 12.4981L11.6516 12.1777L11.2934 12.0629L11.0569 11.6751L10.2486 11.6668L9.60781 11.4225L9.57738 10.9656L9.3635 10.5917L8.78396 10.583L8.44915 10.0574L8.15177 9.91219L8.13655 10.0726L7.59527 10.1047L7.39702 9.82869L6.83229 9.71393L6.36709 10.2515L5.63496 10.1273L5.5819 9.30221L5.04761 9.2109L5.2619 8.80617L5.20062 8.57378L4.49851 9.04309L4.05676 8.9892L3.89923 8.64411L3.99548 8.28833L4.23897 7.83959L4.79959 7.55578L5.88216 7.55537L5.87928 7.88566L6.26838 8.06663L6.23753 7.50231L6.51805 7.22015L7.08401 6.84833L7.12267 6.58674L7.68699 5.99938L8.2871 5.66704L8.23404 5.62344L8.64041 5.24093L8.7893 5.28041L8.85758 5.36596L9.01182 5.19486L9.04967 5.17799L8.88062 5.15414L8.7091 5.09697V4.93244L8.8 4.858H9.00031L9.09203 4.8983L9.17141 5.05871L9.26848 5.04391V5.02992L9.29645 5.03938L9.57779 4.9962L9.61769 4.85882L9.7781 4.89913V5.04802L9.6292 5.15044H9.62961L9.65141 5.31373L10.161 5.47085C10.161 5.47085 10.1614 5.47291 10.1623 5.47702L10.2795 5.46715L10.2873 5.24627L9.88339 5.06242L9.86036 4.9563L10.1956 4.84195L10.2104 4.52113L9.85995 4.30766L9.83692 3.76679L9.3565 4.00288H9.18128L9.22735 3.59116L8.57337 3.43692L8.30272 3.64134V4.26488L7.81614 4.41913L7.62118 4.8255L7.40977 4.85964V4.33974L6.95239 4.2764L6.7237 4.12751L6.63157 3.79064L7.44967 3.31188L7.84987 3.19013L7.89018 3.45913L8.11311 3.44761L8.13039 3.31229L8.3636 3.27897L8.36771 3.23167L8.26735 3.19013L8.24432 3.04699L8.531 3.02272L8.70416 2.84257L8.71362 2.82941L8.71568 2.83023L8.76833 2.77594L9.3709 2.69985L9.63743 2.92607L8.93861 3.2983L9.82787 3.50807L9.94303 3.21069H10.3317L10.4691 2.95157L10.1943 2.88288V2.55506L9.33265 2.17337L8.73789 2.24206L8.40226 2.41769L8.42529 2.84463L8.07445 2.79116L8.02057 2.55506L8.35661 2.24987L7.74663 2.21943L7.57141 2.27249L7.49532 2.47815L7.72401 2.51681L7.67835 2.7455L7.28967 2.76853L7.22879 2.92072L6.66488 2.93635C6.66488 2.93635 6.64925 2.61635 6.62663 2.61635C6.60401 2.61635 7.06879 2.60853 7.06879 2.60853L7.40483 2.28031L7.22139 2.18859L6.97748 2.4255L6.57275 2.40247L6.32884 2.06684H5.81018L5.26889 2.47116H5.76494L5.81018 2.61635L5.68144 2.73604L6.23054 2.75126L6.31445 2.94951L5.69625 2.92648L5.66622 2.77388L5.27753 2.68997L5.07147 2.57563L4.60874 2.57933C6.1236 1.47578 7.98643 0.822622 9.99979 0.822622C12.3204 0.822622 14.4407 1.69008 16.0584 3.11527L15.9494 3.31023L15.5262 3.47599L15.3477 3.66972L15.3888 3.89553L15.6072 3.92596L15.7388 4.25501L16.1156 4.10324L16.1777 4.54334H16.0642L15.7549 4.49769L15.4118 4.55527L15.0799 5.02416L14.6052 5.09861L14.5366 5.50499L14.7369 5.55229L14.6789 5.81347L14.2075 5.71887L13.7752 5.81347L13.6835 6.05409L13.7584 6.55918L14.0121 6.67805L14.4378 6.67558L14.7253 6.64967L14.813 6.42098L15.2621 5.83733L15.5578 5.89779L15.849 5.63455L15.9033 5.84021L16.6198 6.3235L16.5322 6.44113L16.2094 6.42386L16.3336 6.5999L16.5322 6.6435L16.765 6.54643L16.7601 6.26591L16.8633 6.21409L16.7803 6.12607L16.3023 5.85954L16.1765 5.5054H16.5738L16.7009 5.63126L17.0431 5.92617L17.0575 6.28278L17.412 6.66036L17.5441 6.14293L17.7896 6.00884L17.8357 6.43208L18.0755 6.69532L18.5538 6.6871C18.6464 6.92524 18.7295 7.16751 18.8023 7.4147L18.7525 7.46077ZM5.4544 4.54334L5.6946 4.429L5.91177 4.48082L5.83692 4.77244L5.60247 4.84689L5.4544 4.54334ZM6.72905 5.22982V5.41861H6.18036L5.9747 5.36144L6.02612 5.22982L6.28977 5.12082H6.65008V5.22982H6.72905ZM6.98159 5.49306V5.67609L6.84422 5.76452L6.67311 5.7962C6.67311 5.7962 6.67311 5.52185 6.67311 5.49306H6.98159ZM6.82694 5.41861V5.20103L7.01573 5.37296L6.82694 5.41861ZM6.9129 5.85872V6.03681L6.7817 6.16843H6.49008L6.53573 5.96853L6.67352 5.95661L6.7019 5.88792L6.9129 5.85872ZM6.18653 5.49306H6.48967L6.10098 6.0364L5.94057 5.95044L5.97512 5.72175L6.18653 5.49306ZM7.42787 5.7962V5.97388H7.13625L7.05645 5.85872V5.69337H7.07949L7.42787 5.7962ZM7.15846 5.55188L7.24154 5.46468L7.3818 5.55188L7.26951 5.64442L7.15846 5.55188ZM18.9014 7.92391L18.9302 7.89018C18.9421 7.94201 18.9549 7.99383 18.9664 8.04648L18.9014 7.92391Z" fill="#5C5353"/>
<path d="M1.55554 6.12195V6.40822C1.65549 6.1746 1.76572 5.94673 1.88377 5.72339L1.55554 6.12195Z" fill="#5C5353"/>
</svg>
